<svg aria-hidden="true" style="width:0;height:0;position:absolute;overflow:hidden" xmlns="http://www.w3.org/2000/svg"><defs><symbol id="twitter" viewBox="0 0 18 18"><path d="M15.625 3.946a5.004 5.004 0 0 1-.462.522.746.746 0 0 0-.208.681c.028.136.045.303.046.476 0 3.942-1.822 6.728-4.357 8.173-1.985 1.132-4.454 1.466-6.916.84a9.515 9.515 0 0 0 2.695-1.268.75.75 0 0 0-.117-1.306c-2.08-.925-3.097-2.198-3.577-3.445-.313-.813-.409-1.648-.39-2.42.016-.608.104-1.17.208-1.637.296.257.602.53.926.779a8.69 8.69 0 0 0 5.546 1.805.751.751 0 0 0 .732-.75v-.758a2.596 2.596 0 0 1 .898-2.006c.544-.473 1.227-.681 1.894-.635s1.315.347 1.788.891a.75.75 0 0 0 .775.228c.173-.05.347-.107.521-.171zm1.193-2.309a7.422 7.422 0 0 1-1.715.904 4.1 4.1 0 0 0-2.457-1.039 4.097 4.097 0 0 0-2.983.999A4.102 4.102 0 0 0 8.25 5.63a7.2 7.2 0 0 1-3.862-1.477 7.416 7.416 0 0 1-1.526-1.587.75.75 0 0 0-1.296.129s-.099.224-.214.57A10.197 10.197 0 0 0 .84 6.16c-.023.92.09 1.959.489 2.997.512 1.331 1.475 2.609 3.11 3.617a7.887 7.887 0 0 1-3.655.725.75.75 0 0 0-.397 1.404c3.679 2.044 7.82 2.008 10.999.196 3.03-1.726 5.114-5.025 5.114-9.476a4.404 4.404 0 0 0-.017-.367A6.464 6.464 0 0 0 17.98 2.42a.75.75 0 0 0-1.162-.785z"/></symbol><symbol id="instagram" viewBox="0 0 32 32"><path d="M16 2.881c4.275 0 4.781.019 6.462.094 1.563.069 2.406.331 2.969.55a4.952 4.952 0 0 1 1.837 1.194 5.015 5.015 0 0 1 1.2 1.838c.219.563.481 1.412.55 2.969.075 1.688.094 2.194.094 6.463s-.019 4.781-.094 6.463c-.069 1.563-.331 2.406-.55 2.969a4.94 4.94 0 0 1-1.194 1.837 5.02 5.02 0 0 1-1.837 1.2c-.563.219-1.413.481-2.969.55-1.688.075-2.194.094-6.463.094s-4.781-.019-6.463-.094c-1.563-.069-2.406-.331-2.969-.55a4.952 4.952 0 0 1-1.838-1.194 5.02 5.02 0 0 1-1.2-1.837c-.219-.563-.481-1.413-.55-2.969-.075-1.688-.094-2.194-.094-6.463s.019-4.781.094-6.463c.069-1.563.331-2.406.55-2.969a4.964 4.964 0 0 1 1.194-1.838 5.015 5.015 0 0 1 1.838-1.2c.563-.219 1.412-.481 2.969-.55 1.681-.075 2.188-.094 6.463-.094zM16 0c-4.344 0-4.887.019-6.594.094-1.7.075-2.869.35-3.881.744-1.056.412-1.95.956-2.837 1.85a7.833 7.833 0 0 0-1.85 2.831C.444 6.538.169 7.7.094 9.4.019 11.113 0 11.656 0 16s.019 4.887.094 6.594c.075 1.7.35 2.869.744 3.881.413 1.056.956 1.95 1.85 2.837a7.82 7.82 0 0 0 2.831 1.844c1.019.394 2.181.669 3.881.744 1.706.075 2.25.094 6.594.094s4.888-.019 6.594-.094c1.7-.075 2.869-.35 3.881-.744 1.05-.406 1.944-.956 2.831-1.844s1.438-1.781 1.844-2.831c.394-1.019.669-2.181.744-3.881.075-1.706.094-2.25.094-6.594s-.019-4.887-.094-6.594c-.075-1.7-.35-2.869-.744-3.881a7.506 7.506 0 0 0-1.831-2.844A7.82 7.82 0 0 0 26.482.843C25.463.449 24.301.174 22.601.099c-1.712-.081-2.256-.1-6.6-.1z"/><path d="M16 7.781c-4.537 0-8.219 3.681-8.219 8.219s3.681 8.219 8.219 8.219 8.219-3.681 8.219-8.219A8.221 8.221 0 0 0 16 7.781zm0 13.55a5.331 5.331 0 1 1 0-10.663 5.331 5.331 0 0 1 0 10.663zM26.462 7.456a1.919 1.919 0 1 1-3.838 0 1.919 1.919 0 0 1 3.838 0z"/></symbol></defs></svg>