<svg aria-hidden="true" style="width:0;height:0;position:absolute;overflow:hidden" xmlns="http://www.w3.org/2000/svg"><defs><symbol id="close" viewBox="0 0 32 32"><path stroke-linejoin="round" stroke-linecap="round" stroke-width="2.286" d="M22.667 9.333 9.334 22.666M9.333 9.333l13.333 13.333"/></symbol><symbol id="instagram" viewBox="0 0 32 32"><path stroke-linejoin="round" stroke-linecap="round" stroke-width="2.182" d="M22.667 2.667H9.334a6.667 6.667 0 0 0-6.667 6.667v13.333a6.667 6.667 0 0 0 6.667 6.667h13.333a6.667 6.667 0 0 0 6.667-6.667V9.334a6.667 6.667 0 0 0-6.667-6.667z"/><path stroke-linejoin="round" stroke-linecap="round" stroke-width="2.182" d="M21.333 15.16a5.338 5.338 0 0 1-6.123 6.049 5.334 5.334 0 0 1-3.916-7.663 5.333 5.333 0 0 1 8.536-1.374 5.328 5.328 0 0 1 1.504 2.989zM23.333 8.667h.015"/></symbol><symbol id="logo-chocolate" viewBox="0 0 32 32"><path fill="#fcf1e0" style="fill:var(--color2,#fcf1e0)" d="M3.944 20.076 14.721 2.652l.64-.674 8.236 5.491.056 3.314 2.01 3.28-8.88 14.077-12.839-8.063z"/><path fill="none" stroke="#fd9222" style="stroke:var(--color3,#fd9222)" stroke-linejoin="round" stroke-linecap="round" stroke-width="2.743" d="M21.635 23.88 7.449 15.016m3.912-6.417 14.185 8.864M10.63 25.864l11.736-19.25m4.811 8.175c-3.04-1.899-4.234-3.384-2.278-6.592l-9.626-6.015-11.736 19.25 14.185 8.864 9.454-15.507z"/></symbol><symbol id="menu" viewBox="0 0 32 32"><path stroke-linejoin="round" stroke-linecap="round" stroke-width="2.286" d="M4 16h24M4 8h24M4 24h24"/></symbol><symbol id="twitter" viewBox="0 0 32 32"><path stroke-linejoin="round" stroke-linecap="round" stroke-width="2.4" d="M30.667 4a14.53 14.53 0 0 1-4.187 2.04 5.975 5.975 0 0 0-6.637-1.661A5.979 5.979 0 0 0 16 10.04v1.333c-2.343.061-4.665-.459-6.759-1.513S5.347 6.717 4 4.799c0 0-5.333 12.533 6.667 17.867a15.519 15.519 0 0 1-9.333 2.667c12 6.667 26.667 0 26.667-15.333a5.966 5.966 0 0 0-.107-1.107A10.288 10.288 0 0 0 30.667 4z"/></symbol></defs></svg>