<svg aria-hidden="true" style="width:0;height:0;position:absolute;overflow:hidden" xmlns="http://www.w3.org/2000/svg"><defs><symbol id="chocolate" viewBox="0 0 24 24"><path style="fill:var(--color1,#000)" d="m10.366 1.81 5.645 5.652.06-.06a.642.642 0 0 1 .888-.01l.655.655a.635.635 0 0 1 .062.82l-.003.005-.107.144 4.62 4.62a1.047 1.047 0 0 1 0 1.485l-7.073 7.072a1.045 1.045 0 0 1-1.485 0l-3.335-3.335a.626.626 0 0 1-.459.238.628.628 0 0 1-.483-.185l-1.95-1.95a.642.642 0 0 1-.01-.888l.005-.005.058-.057-5.645-5.645a1.045 1.045 0 0 1 0-1.485l7.073-7.072a1.045 1.045 0 0 1 1.485 0v.001zm4.937 6.36-1.317-1.316a.432.432 0 0 0-.319-.135.45.45 0 0 0-.319.135l-2.685 2.685a.46.46 0 0 0 0 .646l1.312 1.312.457-.457-1.174-1.174 2.407-2.415 1.177 1.181.46-.46zm-3.807 3.804-1.315-1.315a.432.432 0 0 0-.319-.135.45.45 0 0 0-.319.135L6.85 13.352a.444.444 0 0 0 0 .638l1.314 1.314.462-.462-1.178-1.173 2.415-2.408 1.173 1.172.459-.458zm-4.88-5.829L9.301 8.83c.18.18.465.18.638-.008l2.685-2.685a.434.434 0 0 0 .135-.315h.008a.46.46 0 0 0-.135-.322L9.947 2.815a.455.455 0 0 0-.646 0L6.616 5.507a.444.444 0 0 0 0 .638zM2.814 9.947l2.685 2.685c.18.18.465.18.638 0l2.685-2.685a.437.437 0 0 0 .135-.322h.008a.447.447 0 0 0-.135-.322L6.145 6.618a.432.432 0 0 0-.319-.135.45.45 0 0 0-.319.135L2.815 9.311a.443.443 0 0 0 0 .637zm5.2 6.566 1.772 1.772 7.227-9.78-.491-.491-8.507 8.499z"/><path fill="#fd9222" style="fill:var(--color2,#fd9222)" d="m10.366 1.81 5.645 5.652.06-.06a.642.642 0 0 1 .888-.01l.655.655a.635.635 0 0 1 .062.82l-.003.005-.107.144 4.62 4.62a1.047 1.047 0 0 1 0 1.485l-7.073 7.072a1.045 1.045 0 0 1-1.485 0l-3.335-3.335a.626.626 0 0 1-.459.238.628.628 0 0 1-.483-.185l-1.95-1.95a.642.642 0 0 1-.01-.888l.005-.005.058-.057-5.645-5.645a1.045 1.045 0 0 1 0-1.485l7.073-7.072a1.045 1.045 0 0 1 1.485 0v.001zm4.937 6.36-1.317-1.316a.432.432 0 0 0-.319-.135.45.45 0 0 0-.319.135l-2.685 2.685a.46.46 0 0 0 0 .646l1.312 1.312.457-.457-1.174-1.174 2.407-2.415 1.177 1.181.46-.46zm-3.807 3.804-1.315-1.315a.432.432 0 0 0-.319-.135.45.45 0 0 0-.319.135L6.85 13.352a.444.444 0 0 0 0 .638l1.314 1.314.462-.462-1.178-1.173 2.415-2.408 1.173 1.172.459-.458zm-4.88-5.829L9.301 8.83c.18.18.465.18.638-.008l2.685-2.685a.434.434 0 0 0 .135-.315h.008a.46.46 0 0 0-.135-.322L9.947 2.815a.455.455 0 0 0-.646 0L6.616 5.507a.444.444 0 0 0 0 .638zM2.814 9.947l2.685 2.685c.18.18.465.18.638 0l2.685-2.685a.437.437 0 0 0 .135-.322h.008a.447.447 0 0 0-.135-.322L6.145 6.618a.432.432 0 0 0-.319-.135.45.45 0 0 0-.319.135L2.815 9.311a.443.443 0 0 0 0 .637zm5.2 6.566 1.772 1.772 7.227-9.78-.491-.491-8.507 8.499z"/></symbol><symbol id="coin" viewBox="0 0 24 24"><path fill="#fd9222" style="fill:var(--color2,#fd9222)" d="M12 2C6.5 2 2 6.5 2 12s4.5 10 10 10 10-4.5 10-10S17.5 2 12 2zm0 18c-4.4 0-8-3.6-8-8s3.6-8 8-8 8 3.6 8 8-3.6 8-8 8z"/><path fill="#fd9222" style="fill:var(--color2,#fd9222)" d="M13.3 11h-2.6c-.5 0-.9-.4-.9-.9s.4-.9.9-.9h3.7c.6 0 1-.4 1-1s-.4-1-1-1H13v-.9c0-.6-.4-1-1-1s-1 .4-1 1v.9h-.3c-1.6 0-2.9 1.3-2.9 2.9S9.1 13 10.7 13h2.5c.5 0 .9.4.9.9s-.4.9-.9.9H9.5c-.6 0-1 .4-1 1s.4 1 1 1H11v.9c0 .6.4 1 1 1s1-.4 1-1v-.9h.3c1.6 0 2.9-1.3 2.9-2.9S14.9 11 13.3 11z"/></symbol><symbol id="spoon" viewBox="0 0 24 24"><path fill="#fd9222" style="fill:var(--color2,#fd9222)" d="M11.589 10.579a3.865 3.865 0 0 1-.882-2.461c0-3.243 3.886-6.482 7.772-6.482a3.888 3.888 0 0 1 3.886 3.887c0 3.887-3.238 7.773-6.484 7.773a3.866 3.866 0 0 1-2.461-.883l-9.569 9.571a1.298 1.298 0 0 1-1.834-1.834l9.573-9.571z"/></symbol></defs></svg>