<svg aria-hidden="true" style="position: absolute; width: 0; height: 0; overflow: hidden;" version="1.1" xmlns="http://www.w3.org/2000/svg" xmlns:xlink="http://www.w3.org/1999/xlink">
<defs>
<symbol id="twitter" viewBox="0 0 18 18">
<path d="M15.625 3.946c-0.139 0.181-0.293 0.356-0.462 0.522-0.175 0.174-0.26 0.425-0.208 0.681 0.028 0.136 0.045 0.303 0.046 0.476 0 3.942-1.822 6.728-4.357 8.173-1.985 1.132-4.454 1.466-6.916 0.84 0.934-0.271 1.845-0.691 2.695-1.268 0.11-0.074 0.205-0.182 0.264-0.316 0.168-0.379-0.002-0.822-0.381-0.99-2.080-0.925-3.097-2.198-3.577-3.445-0.313-0.813-0.409-1.648-0.39-2.42 0.016-0.608 0.104-1.17 0.208-1.637 0.296 0.257 0.602 0.53 0.926 0.779 1.538 1.183 3.468 1.859 5.546 1.805 0.407-0.011 0.732-0.343 0.732-0.75v-0.758c-0.001-0.134 0.007-0.268 0.026-0.4 0.085-0.604 0.378-1.177 0.872-1.606 0.544-0.473 1.227-0.681 1.894-0.635s1.315 0.347 1.788 0.891c0.189 0.215 0.487 0.312 0.775 0.228 0.173-0.050 0.347-0.107 0.521-0.171zM16.818 1.637c-0.555 0.392-1.142 0.694-1.715 0.904-0.698-0.627-1.568-0.977-2.457-1.039-1.049-0.073-2.127 0.254-2.983 0.999-0.777 0.676-1.239 1.581-1.373 2.529-0.028 0.199-0.041 0.399-0.040 0.6-1.441-0.107-2.77-0.638-3.862-1.477-0.581-0.447-1.097-0.982-1.526-1.587-0.24-0.337-0.708-0.418-1.045-0.178-0.116 0.082-0.2 0.19-0.251 0.307 0 0-0.099 0.224-0.214 0.57-0.084 0.253-0.181 0.581-0.268 0.967-0.122 0.541-0.226 1.202-0.244 1.928-0.023 0.92 0.090 1.959 0.489 2.997 0.512 1.331 1.475 2.609 3.11 3.617-1.177 0.544-2.434 0.779-3.655 0.725-0.414-0.018-0.764 0.302-0.782 0.716-0.013 0.292 0.143 0.552 0.385 0.688 3.679 2.044 7.82 2.008 10.999 0.196 3.030-1.726 5.114-5.025 5.114-9.476-0.001-0.125-0.006-0.247-0.017-0.367 0.755-0.836 1.257-1.822 1.497-2.836 0.095-0.403-0.154-0.807-0.557-0.902-0.217-0.052-0.435-0.002-0.605 0.117z"></path>
</symbol>
<symbol id="instagram" viewBox="0 0 32 32">
<path d="M16 2.881c4.275 0 4.781 0.019 6.462 0.094 1.563 0.069 2.406 0.331 2.969 0.55 0.744 0.288 1.281 0.638 1.837 1.194 0.563 0.563 0.906 1.094 1.2 1.838 0.219 0.563 0.481 1.412 0.55 2.969 0.075 1.688 0.094 2.194 0.094 6.463s-0.019 4.781-0.094 6.463c-0.069 1.563-0.331 2.406-0.55 2.969-0.288 0.744-0.637 1.281-1.194 1.837-0.563 0.563-1.094 0.906-1.837 1.2-0.563 0.219-1.413 0.481-2.969 0.55-1.688 0.075-2.194 0.094-6.463 0.094s-4.781-0.019-6.463-0.094c-1.563-0.069-2.406-0.331-2.969-0.55-0.744-0.288-1.281-0.637-1.838-1.194-0.563-0.563-0.906-1.094-1.2-1.837-0.219-0.563-0.481-1.413-0.55-2.969-0.075-1.688-0.094-2.194-0.094-6.463s0.019-4.781 0.094-6.463c0.069-1.563 0.331-2.406 0.55-2.969 0.288-0.744 0.638-1.281 1.194-1.838 0.563-0.563 1.094-0.906 1.838-1.2 0.563-0.219 1.412-0.481 2.969-0.55 1.681-0.075 2.188-0.094 6.463-0.094zM16 0c-4.344 0-4.887 0.019-6.594 0.094-1.7 0.075-2.869 0.35-3.881 0.744-1.056 0.412-1.95 0.956-2.837 1.85-0.894 0.888-1.438 1.781-1.85 2.831-0.394 1.019-0.669 2.181-0.744 3.881-0.075 1.713-0.094 2.256-0.094 6.6s0.019 4.887 0.094 6.594c0.075 1.7 0.35 2.869 0.744 3.881 0.413 1.056 0.956 1.95 1.85 2.837 0.887 0.887 1.781 1.438 2.831 1.844 1.019 0.394 2.181 0.669 3.881 0.744 1.706 0.075 2.25 0.094 6.594 0.094s4.888-0.019 6.594-0.094c1.7-0.075 2.869-0.35 3.881-0.744 1.050-0.406 1.944-0.956 2.831-1.844s1.438-1.781 1.844-2.831c0.394-1.019 0.669-2.181 0.744-3.881 0.075-1.706 0.094-2.25 0.094-6.594s-0.019-4.887-0.094-6.594c-0.075-1.7-0.35-2.869-0.744-3.881-0.394-1.063-0.938-1.956-1.831-2.844-0.887-0.887-1.781-1.438-2.831-1.844-1.019-0.394-2.181-0.669-3.881-0.744-1.712-0.081-2.256-0.1-6.6-0.1v0z"></path>
<path d="M16 7.781c-4.537 0-8.219 3.681-8.219 8.219s3.681 8.219 8.219 8.219 8.219-3.681 8.219-8.219c0-4.537-3.681-8.219-8.219-8.219zM16 21.331c-2.944 0-5.331-2.387-5.331-5.331s2.387-5.331 5.331-5.331c2.944 0 5.331 2.387 5.331 5.331s-2.387 5.331-5.331 5.331z"></path>
<path d="M26.462 7.456c0 1.060-0.859 1.919-1.919 1.919s-1.919-0.859-1.919-1.919c0-1.060 0.859-1.919 1.919-1.919s1.919 0.859 1.919 1.919z"></path>
</symbol>
</defs>
</svg>
