<svg aria-hidden="true" style="position: absolute; width: 0; height: 0; overflow: hidden;" version="1.1" xmlns="http://www.w3.org/2000/svg" xmlns:xlink="http://www.w3.org/1999/xlink">
<defs>
<symbol id="chocolate" viewBox="0 0 24 24">
<path fill="#000" style="fill: var(--color1, #000)" d="M10.366 1.81l5.645 5.652 0.060-0.060c0.118-0.116 0.277-0.181 0.442-0.183s0.325 0.060 0.446 0.173l0.655 0.655c0.229 0.229 0.236 0.578 0.062 0.82l-0.003 0.005-0.107 0.144 4.62 4.62c0.412 0.413 0.412 1.073 0 1.485l-7.073 7.072c-0.412 0.413-1.072 0.413-1.485 0l-3.335-3.335c-0.055 0.070-0.125 0.127-0.204 0.168s-0.166 0.065-0.255 0.070c-0.089 0.005-0.178-0.009-0.261-0.041s-0.159-0.081-0.222-0.144l-1.95-1.95c-0.116-0.118-0.181-0.277-0.183-0.442s0.060-0.325 0.173-0.446l0.005-0.005 0.058-0.057-5.645-5.645c-0.413-0.413-0.413-1.073 0-1.485l7.073-7.072c0.413-0.413 1.072-0.413 1.485 0v0.001zM15.303 8.17l-1.317-1.316c-0.041-0.043-0.091-0.077-0.146-0.1s-0.114-0.035-0.173-0.035c-0.059 0-0.118 0.012-0.173 0.035s-0.104 0.057-0.146 0.1l-2.685 2.685c-0.043 0.042-0.076 0.092-0.099 0.148s-0.035 0.115-0.035 0.175 0.012 0.119 0.035 0.175c0.023 0.055 0.057 0.106 0.099 0.148l1.312 1.312 0.457-0.457-1.174-1.174 2.407-2.415 1.177 1.181 0.46-0.46zM11.496 11.974l-1.315-1.315c-0.041-0.043-0.091-0.077-0.146-0.1s-0.114-0.035-0.173-0.035c-0.059 0-0.118 0.012-0.173 0.035s-0.104 0.057-0.146 0.1l-2.693 2.693c-0.18 0.172-0.18 0.457 0 0.638l1.314 1.314 0.462-0.462-1.178-1.173 2.415-2.408 1.173 1.172 0.459-0.458zM6.616 6.145l2.685 2.685c0.18 0.18 0.465 0.18 0.638-0.008l2.685-2.685c0.043-0.041 0.077-0.090 0.1-0.144s0.035-0.112 0.035-0.171h0.008c0-0.113-0.045-0.232-0.135-0.322l-2.685-2.685c-0.042-0.043-0.092-0.076-0.148-0.1s-0.115-0.035-0.175-0.035c-0.060 0-0.119 0.012-0.175 0.035s-0.106 0.057-0.148 0.1l-2.685 2.692c-0.18 0.173-0.18 0.458 0 0.638zM2.814 9.947l2.685 2.685c0.18 0.18 0.465 0.18 0.638 0l2.685-2.685c0.044-0.041 0.078-0.092 0.101-0.147s0.035-0.115 0.034-0.175h0.008c0-0.12-0.045-0.232-0.135-0.322l-2.685-2.685c-0.041-0.043-0.091-0.077-0.146-0.1s-0.114-0.035-0.173-0.035c-0.059 0-0.118 0.012-0.173 0.035s-0.104 0.057-0.146 0.1l-2.692 2.693c-0.18 0.172-0.18 0.457 0 0.637zM8.014 16.513l1.772 1.772 7.227-9.78-0.491-0.491-8.507 8.499z"></path>
<path fill="#fd9222" style="fill: var(--color2, #fd9222)" d="M10.366 1.81l5.645 5.652 0.060-0.060c0.118-0.116 0.277-0.181 0.442-0.183s0.325 0.060 0.446 0.173l0.655 0.655c0.229 0.229 0.236 0.578 0.062 0.82l-0.003 0.005-0.107 0.144 4.62 4.62c0.412 0.413 0.412 1.073 0 1.485l-7.073 7.072c-0.412 0.413-1.072 0.413-1.485 0l-3.335-3.335c-0.055 0.070-0.125 0.127-0.204 0.168s-0.166 0.065-0.255 0.070c-0.089 0.005-0.178-0.009-0.261-0.041s-0.159-0.081-0.222-0.144l-1.95-1.95c-0.116-0.118-0.181-0.277-0.183-0.442s0.060-0.325 0.173-0.446l0.005-0.005 0.058-0.057-5.645-5.645c-0.413-0.413-0.413-1.073 0-1.485l7.073-7.072c0.413-0.413 1.072-0.413 1.485 0v0.001zM15.303 8.17l-1.317-1.316c-0.041-0.043-0.091-0.077-0.146-0.1s-0.114-0.035-0.173-0.035c-0.059 0-0.118 0.012-0.173 0.035s-0.104 0.057-0.146 0.1l-2.685 2.685c-0.043 0.042-0.076 0.092-0.099 0.148s-0.035 0.115-0.035 0.175 0.012 0.119 0.035 0.175c0.023 0.055 0.057 0.106 0.099 0.148l1.312 1.312 0.457-0.457-1.174-1.174 2.407-2.415 1.177 1.181 0.46-0.46zM11.496 11.974l-1.315-1.315c-0.041-0.043-0.091-0.077-0.146-0.1s-0.114-0.035-0.173-0.035c-0.059 0-0.118 0.012-0.173 0.035s-0.104 0.057-0.146 0.1l-2.693 2.693c-0.18 0.172-0.18 0.457 0 0.638l1.314 1.314 0.462-0.462-1.178-1.173 2.415-2.408 1.173 1.172 0.459-0.458zM6.616 6.145l2.685 2.685c0.18 0.18 0.465 0.18 0.638-0.008l2.685-2.685c0.043-0.041 0.077-0.090 0.1-0.144s0.035-0.112 0.035-0.171h0.008c0-0.113-0.045-0.232-0.135-0.322l-2.685-2.685c-0.042-0.043-0.092-0.076-0.148-0.1s-0.115-0.035-0.175-0.035c-0.060 0-0.119 0.012-0.175 0.035s-0.106 0.057-0.148 0.1l-2.685 2.692c-0.18 0.173-0.18 0.458 0 0.638zM2.814 9.947l2.685 2.685c0.18 0.18 0.465 0.18 0.638 0l2.685-2.685c0.044-0.041 0.078-0.092 0.101-0.147s0.035-0.115 0.034-0.175h0.008c0-0.12-0.045-0.232-0.135-0.322l-2.685-2.685c-0.041-0.043-0.091-0.077-0.146-0.1s-0.114-0.035-0.173-0.035c-0.059 0-0.118 0.012-0.173 0.035s-0.104 0.057-0.146 0.1l-2.692 2.693c-0.18 0.172-0.18 0.457 0 0.637zM8.014 16.513l1.772 1.772 7.227-9.78-0.491-0.491-8.507 8.499z"></path>
</symbol>
<symbol id="coin" viewBox="0 0 24 24">
<path fill="#fd9222" style="fill: var(--color2, #fd9222)" d="M12 2c-5.5 0-10 4.5-10 10s4.5 10 10 10c5.5 0 10-4.5 10-10s-4.5-10-10-10zM12 20c-4.4 0-8-3.6-8-8s3.6-8 8-8c4.4 0 8 3.6 8 8s-3.6 8-8 8z"></path>
<path fill="#fd9222" style="fill: var(--color2, #fd9222)" d="M13.3 11h-2.6c-0.5 0-0.9-0.4-0.9-0.9s0.4-0.9 0.9-0.9h3.7c0.6 0 1-0.4 1-1s-0.4-1-1-1h-1.4v-0.9c0-0.6-0.4-1-1-1s-1 0.4-1 1v0.9h-0.3c-1.6 0-2.9 1.3-2.9 2.9s1.3 2.9 2.9 2.9h2.5c0.5 0 0.9 0.4 0.9 0.9s-0.4 0.9-0.9 0.9h-3.7c-0.6 0-1 0.4-1 1s0.4 1 1 1h1.5v0.9c0 0.6 0.4 1 1 1s1-0.4 1-1v-0.9h0.3c1.6 0 2.9-1.3 2.9-2.9s-1.3-2.9-2.9-2.9z"></path>
</symbol>
<symbol id="spoon" viewBox="0 0 24 24">
<path fill="#fd9222" style="fill: var(--color2, #fd9222)" d="M11.589 10.579c-0.587-0.712-0.882-1.587-0.882-2.461 0-3.243 3.886-6.482 7.772-6.482 2.145 0 3.886 1.741 3.886 3.887 0 3.887-3.238 7.773-6.484 7.773-0.874 0-1.749-0.296-2.461-0.883l-9.569 9.571c-0.506 0.506-1.328 0.506-1.834 0s-0.506-1.328 0-1.834l9.573-9.571z"></path>
</symbol>
</defs>
</svg>
