<svg width="16" height="16" viewBox="0 0 16 16" fill="none" xmlns="http://www.w3.org/2000/svg">
<path d="M8.47342 8.93359C8.41144 8.99607 8.33771 9.04567 8.25647 9.07952C8.17523 9.11336 8.08809 9.13079 8.00009 9.13079C7.91208 9.13079 7.82494 9.11336 7.7437 9.07952C7.66246 9.04567 7.58873 8.99607 7.52675 8.93359L4.47342 5.87359C4.41144 5.8111 4.33771 5.76151 4.25647 5.72766C4.17523 5.69381 4.08809 5.67639 4.00008 5.67639C3.91207 5.67639 3.82494 5.69381 3.7437 5.72766C3.66246 5.76151 3.58872 5.8111 3.52675 5.87359C3.40258 5.9985 3.33289 6.16746 3.33289 6.34359C3.33289 6.51971 3.40258 6.68868 3.52675 6.81359L6.58675 9.87359C6.96175 10.2481 7.47008 10.4585 8.00009 10.4585C8.53009 10.4585 9.03842 10.2481 9.41342 9.87359L12.4734 6.81359C12.5966 6.68941 12.666 6.52182 12.6668 6.34692C12.6673 6.25918 12.6504 6.17221 12.6173 6.09098C12.5841 6.00976 12.5352 5.93588 12.4734 5.87359C12.4114 5.8111 12.3377 5.76151 12.2565 5.72766C12.1752 5.69381 12.0881 5.67639 12.0001 5.67639C11.9121 5.67639 11.8249 5.69381 11.7437 5.72766C11.6625 5.76151 11.5887 5.8111 11.5268 5.87359L8.47342 8.93359Z" fill="#FD9222"/>
</svg>
